<svg width="187" height="31" viewBox="0 0 187 31" fill="none" xmlns="http://www.w3.org/2000/svg">
<path d="M8.09259 26.6778C9.03821 26.9962 9.8608 26.0718 9.57754 25.1049C9.41671 24.5558 8.98624 24.1366 8.45425 23.9414C5.61691 22.9005 3.93649 21.0147 2.95376 17.1544C1.65133 12.0383 3.10442 7.03813 5.88743 4.2082C6.48725 3.59826 7.36833 3.36856 8.1847 3.60928C11.9725 4.72618 15.3807 8.53383 16.6831 13.6499C17.8479 18.2253 17.0384 22.708 14.8637 25.6286C14.415 24.7828 13.8419 23.6867 13.6029 22.7807C12.8942 20.0951 12.9463 18.2232 12.969 17.4048C12.9836 16.8818 12.9862 16.789 12.7706 17.1889C12.2177 18.2147 10.4504 17.7776 10.1897 17.5812C9.8341 17.3134 9.64721 17.1338 9.54081 17.0315C9.40925 16.9051 9.40075 16.8969 9.34857 16.9864C9.31212 17.0489 9.57516 17.6823 9.93968 18.5601C10.5194 19.9562 11.3559 21.9704 11.6526 23.2892C11.931 24.5268 12.0142 25.8003 12.0815 26.83C12.1311 27.5875 12.172 28.2131 12.2756 28.5955C12.5278 29.5263 12.8144 29.9078 13.3767 30.0617C13.6908 30.1477 13.978 30.131 14.2004 30.0345C14.5372 29.8884 14.8515 29.6765 15.1087 29.4259C19.4111 25.7957 21.2566 19.4334 19.593 12.8984C17.9029 6.25978 12.8957 1.51354 7.28167 0.538069C6.54731 0.41047 5.7937 0.606943 5.21167 1.07773C0.762171 4.67682 -1.0685 11.2806 0.621521 17.9192C1.87623 22.8478 4.53889 25.4811 8.09259 26.6778Z" fill="#352E1F"/>
<path fill-rule="evenodd" clip-rule="evenodd" d="M11.1514 11.9095C11.5809 12.0557 11.9823 12.1924 12.1902 12.304C12.4096 12.4218 12.4668 12.5233 12.4668 12.5233C12.4668 12.5233 12.5963 12.6528 12.7041 13.0058C12.8298 13.4175 12.9003 13.7518 12.9678 14.218C13.0503 14.7891 13.0044 15.2094 12.9426 15.5847C12.7453 16.7832 12.2589 17.2539 11.5587 17.2539C9.82197 17.2539 9.0299 16.1632 8.61677 13.0505C8.41954 11.5646 8.10681 10.3393 7.76072 9.6962C7.49431 9.20132 7.34102 9.04245 6.94748 8.85343C6.55395 8.66444 6.50474 8.4044 6.90958 8.39531C7.43096 8.3836 7.99436 8.8927 8.72875 10.0392C9.04168 10.5278 9.42309 11.0627 9.57629 11.2277C9.77388 11.4405 10.4954 11.6861 11.1514 11.9095ZM12.3573 16.4737C12.4621 16.3951 12.6474 15.748 12.7041 15.2307C12.8426 13.967 11.9621 10.7608 12.1384 14.3113C12.1466 14.4746 12.154 14.626 12.1609 14.7665C12.2447 16.4664 12.2491 16.555 12.3573 16.4737Z" fill="#352E1F"/>
<path fill-rule="evenodd" clip-rule="evenodd" d="M23.4707 8.6452C22.5618 8.66636 21.6336 8.84954 20.7178 9.18091C20.0093 9.43726 19.1938 9.14161 18.8521 8.46323C18.8088 8.37719 18.7648 8.29143 18.7201 8.20593C18.5185 7.82035 18.6633 7.33464 19.0621 7.16898C20.9621 6.37966 22.9748 6.04585 24.9367 6.22613C25.5934 6.28647 26.1933 6.62851 26.5845 7.16562C29.5754 11.2718 29.8939 17.4103 26.949 22.6997C24.4377 27.2105 18.8333 30.4678 15.8721 30.5C15.7209 30.5016 15.6496 30.3249 15.7485 30.2092C16.1602 29.7281 17.0145 28.713 17.5935 27.9108C17.8071 27.6149 18.0969 27.3833 18.4298 27.2394C20.8217 26.2058 23.0824 24.1668 24.6369 21.3745C26.9064 17.2982 27.0393 12.7513 25.2995 9.68784C24.9245 9.02758 24.2231 8.62769 23.4707 8.6452Z" fill="#352E1F"/>
<path d="M21.3032 18.854C21.265 18.956 21.1096 18.92 21.1188 18.8113C21.1728 18.1775 21.2408 17.2528 21.2408 16.6206C21.2408 16.2205 21.227 15.8236 21.1999 15.4304C21.176 15.0839 21.2188 14.7352 21.3406 14.4105L22.813 10.4834C22.9621 10.0855 23.4018 9.88535 23.7949 10.0363C24.1881 10.1873 24.3858 10.6321 24.2367 11.03L21.3032 18.854Z" fill="#352E1F"/>
<rect width="2" height="29" transform="matrix(-1 0 0 1 47 0.5)" fill="#352E1F"/>
<path d="M67.18 20.28H71.78V22.5H64.38V8.54H67.18V20.28ZM83.8597 16.72C83.8597 17.12 83.833 17.48 83.7797 17.8H75.6797C75.7464 18.6 76.0264 19.2267 76.5197 19.68C77.013 20.1333 77.6197 20.36 78.3397 20.36C79.3797 20.36 80.1197 19.9133 80.5597 19.02H83.5797C83.2597 20.0867 82.6464 20.9667 81.7397 21.66C80.833 22.34 79.7197 22.68 78.3997 22.68C77.333 22.68 76.373 22.4467 75.5197 21.98C74.6797 21.5 74.0197 20.8267 73.5397 19.96C73.073 19.0933 72.8397 18.0933 72.8397 16.96C72.8397 15.8133 73.073 14.8067 73.5397 13.94C74.0064 13.0733 74.6597 12.4067 75.4997 11.94C76.3397 11.4733 77.3064 11.24 78.3997 11.24C79.453 11.24 80.393 11.4667 81.2197 11.92C82.0597 12.3733 82.7064 13.02 83.1597 13.86C83.6264 14.6867 83.8597 15.64 83.8597 16.72ZM80.9597 15.92C80.9464 15.2 80.6864 14.6267 80.1797 14.2C79.673 13.76 79.053 13.54 78.3197 13.54C77.6264 13.54 77.0397 13.7533 76.5597 14.18C76.093 14.5933 75.8064 15.1733 75.6997 15.92H80.9597ZM88.7034 7.7V22.5H85.9034V7.7H88.7034ZM90.7498 16.92C90.7498 15.8 90.9698 14.8067 91.4098 13.94C91.8632 13.0733 92.4698 12.4067 93.2298 11.94C94.0032 11.4733 94.8632 11.24 95.8098 11.24C96.6365 11.24 97.3565 11.4067 97.9698 11.74C98.5965 12.0733 99.0965 12.4933 99.4698 13V11.42H102.29V22.5H99.4698V20.88C99.1098 21.4 98.6098 21.8333 97.9698 22.18C97.3432 22.5133 96.6165 22.68 95.7898 22.68C94.8565 22.68 94.0032 22.44 93.2298 21.96C92.4698 21.48 91.8632 20.8067 91.4098 19.94C90.9698 19.06 90.7498 18.0533 90.7498 16.92ZM99.4698 16.96C99.4698 16.28 99.3365 15.7 99.0698 15.22C98.8032 14.7267 98.4432 14.3533 97.9898 14.1C97.5365 13.8333 97.0498 13.7 96.5298 13.7C96.0098 13.7 95.5298 13.8267 95.0898 14.08C94.6498 14.3333 94.2898 14.7067 94.0098 15.2C93.7432 15.68 93.6098 16.2533 93.6098 16.92C93.6098 17.5867 93.7432 18.1733 94.0098 18.68C94.2898 19.1733 94.6498 19.5533 95.0898 19.82C95.5432 20.0867 96.0232 20.22 96.5298 20.22C97.0498 20.22 97.5365 20.0933 97.9898 19.84C98.4432 19.5733 98.8032 19.2 99.0698 18.72C99.3365 18.2267 99.4698 17.64 99.4698 16.96ZM111.165 11.26C112.485 11.26 113.551 11.68 114.365 12.52C115.178 13.3467 115.585 14.5067 115.585 16V22.5H112.785V16.38C112.785 15.5 112.565 14.8267 112.125 14.36C111.685 13.88 111.085 13.64 110.325 13.64C109.551 13.64 108.938 13.88 108.485 14.36C108.045 14.8267 107.825 15.5 107.825 16.38V22.5H105.025V11.42H107.825V12.8C108.198 12.32 108.671 11.9467 109.245 11.68C109.831 11.4 110.471 11.26 111.165 11.26ZM122.587 11.24C123.414 11.24 124.141 11.4067 124.767 11.74C125.394 12.06 125.887 12.48 126.247 13V11.42H129.067V22.58C129.067 23.6067 128.861 24.52 128.447 25.32C128.034 26.1333 127.414 26.7733 126.587 27.24C125.761 27.72 124.761 27.96 123.587 27.96C122.014 27.96 120.721 27.5933 119.707 26.86C118.707 26.1267 118.141 25.1267 118.007 23.86H120.787C120.934 24.3667 121.247 24.7667 121.727 25.06C122.221 25.3667 122.814 25.52 123.507 25.52C124.321 25.52 124.981 25.2733 125.487 24.78C125.994 24.3 126.247 23.5667 126.247 22.58V20.86C125.887 21.38 125.387 21.8133 124.747 22.16C124.121 22.5067 123.401 22.68 122.587 22.68C121.654 22.68 120.801 22.44 120.027 21.96C119.254 21.48 118.641 20.8067 118.187 19.94C117.747 19.06 117.527 18.0533 117.527 16.92C117.527 15.8 117.747 14.8067 118.187 13.94C118.641 13.0733 119.247 12.4067 120.007 11.94C120.781 11.4733 121.641 11.24 122.587 11.24ZM126.247 16.96C126.247 16.28 126.114 15.7 125.847 15.22C125.581 14.7267 125.221 14.3533 124.767 14.1C124.314 13.8333 123.827 13.7 123.307 13.7C122.787 13.7 122.307 13.8267 121.867 14.08C121.427 14.3333 121.067 14.7067 120.787 15.2C120.521 15.68 120.387 16.2533 120.387 16.92C120.387 17.5867 120.521 18.1733 120.787 18.68C121.067 19.1733 121.427 19.5533 121.867 19.82C122.321 20.0867 122.801 20.22 123.307 20.22C123.827 20.22 124.314 20.0933 124.767 19.84C125.221 19.5733 125.581 19.2 125.847 18.72C126.114 18.2267 126.247 17.64 126.247 16.96ZM144.488 15.34C145.274 15.4867 145.921 15.88 146.428 16.52C146.934 17.16 147.188 17.8933 147.188 18.72C147.188 19.4667 147.001 20.1267 146.628 20.7C146.268 21.26 145.741 21.7 145.048 22.02C144.354 22.34 143.534 22.5 142.588 22.5H136.568V8.54H142.328C143.274 8.54 144.088 8.69333 144.768 9C145.461 9.30667 145.981 9.73333 146.328 10.28C146.688 10.8267 146.868 11.4467 146.868 12.14C146.868 12.9533 146.648 13.6333 146.207 14.18C145.781 14.7267 145.208 15.1133 144.488 15.34ZM139.368 14.3H141.928C142.594 14.3 143.108 14.1533 143.468 13.86C143.828 13.5533 144.008 13.12 144.008 12.56C144.008 12 143.828 11.5667 143.468 11.26C143.108 10.9533 142.594 10.8 141.928 10.8H139.368V14.3ZM142.188 20.22C142.868 20.22 143.394 20.06 143.768 19.74C144.154 19.42 144.348 18.9667 144.348 18.38C144.348 17.78 144.148 17.3133 143.748 16.98C143.348 16.6333 142.808 16.46 142.128 16.46H139.368V20.22H142.188ZM148.699 16.92C148.699 15.8 148.919 14.8067 149.359 13.94C149.812 13.0733 150.419 12.4067 151.179 11.94C151.952 11.4733 152.812 11.24 153.759 11.24C154.586 11.24 155.306 11.4067 155.919 11.74C156.546 12.0733 157.046 12.4933 157.419 13V11.42H160.239V22.5H157.419V20.88C157.059 21.4 156.559 21.8333 155.919 22.18C155.292 22.5133 154.566 22.68 153.739 22.68C152.806 22.68 151.952 22.44 151.179 21.96C150.419 21.48 149.812 20.8067 149.359 19.94C148.919 19.06 148.699 18.0533 148.699 16.92ZM157.419 16.96C157.419 16.28 157.286 15.7 157.019 15.22C156.752 14.7267 156.392 14.3533 155.939 14.1C155.486 13.8333 154.999 13.7 154.479 13.7C153.959 13.7 153.479 13.8267 153.039 14.08C152.599 14.3333 152.239 14.7067 151.959 15.2C151.692 15.68 151.559 16.2533 151.559 16.92C151.559 17.5867 151.692 18.1733 151.959 18.68C152.239 19.1733 152.599 19.5533 153.039 19.82C153.492 20.0867 153.972 20.22 154.479 20.22C154.999 20.22 155.486 20.0933 155.939 19.84C156.392 19.5733 156.752 19.2 157.019 18.72C157.286 18.2267 157.419 17.64 157.419 16.96ZM166.234 13.72V19.08C166.234 19.4533 166.32 19.7267 166.494 19.9C166.68 20.06 166.987 20.14 167.414 20.14H168.714V22.5H166.954C164.594 22.5 163.414 21.3533 163.414 19.06V13.72H162.094V11.42H163.414V8.68H166.234V11.42H168.714V13.72H166.234ZM172.148 10.1C171.654 10.1 171.241 9.94667 170.908 9.64C170.588 9.32 170.428 8.92667 170.428 8.46C170.428 7.99333 170.588 7.60667 170.908 7.3C171.241 6.98 171.654 6.82 172.148 6.82C172.641 6.82 173.048 6.98 173.368 7.3C173.701 7.60667 173.868 7.99333 173.868 8.46C173.868 8.92667 173.701 9.32 173.368 9.64C173.048 9.94667 172.641 10.1 172.148 10.1ZM173.528 11.42V22.5H170.728V11.42H173.528ZM182.854 22.5L179.094 17.78V22.5H176.294V7.7H179.094V16.12L182.814 11.42H186.454L181.574 16.98L186.494 22.5H182.854Z" fill="#352E1F"/>
</svg>
